# xmcd
#
# Track frame offsets:
#	150
#	19861
#	39229
#	52337
#	65363
#	80799
#	95734
#	113848
#	128810
#	147683
#	163890
#	178675
#	193726
#	209924
#	225400
#
# Disc length: 3243 seconds
#
# Revision: 1
# Processed by: cddbd v1.5.1PL0 Copyright (c) Steve Scherf et al.
# Submitted via: audiograbber 1.82.02
#
DISCID=e70ca90f
DTITLE=Various Artist - Nashville Sound Vol 11
DYEAR=1900
DGENRE=Karaoke
TTITLE0=Vince Gill - When love finds you
TTITLE1=John Berry - You and only you
TTITLE2=Chely Wright - Till I was loved by you
TTITLE3=Mark Chesnutt - Goin' thru the big " D'
TTITLE4=Mavericks - There goes my heart
TTITLE5=Kathy Mattea - Maybe she's human
TTITLE6=Aaron Tippin - I got it honest
TTITLE7=John Anderson - Country 'til I die
TTITLE8=Wynonna Judd  - I saw the light
TTITLE9=Diamond Rio - Night is fallin' in my heart
TTITLE10=Rick Trevino - Doctor time
TTITLE11=Martina McBride - Heart trouble
TTITLE12=Randy Travis - This is me
TTITLE13=Joe Diffie - Pickup man
TTITLE14=Reba McEntire - Till you love me
EXTD=
EXTT0=
EXTT1=
EXTT2=
EXTT3=
EXTT4=
EXTT5=
EXTT6=
EXTT7=
EXTT8=
EXTT9=
EXTT10=
EXTT11=
EXTT12=
EXTT13=
EXTT14=
PLAYORDER=
